<?xml version="1.0" encoding="UTF-8" standalone="no"?>
<!-- Created with Inkscape (http://www.inkscape.org/) -->

<svg
   width="256"
   height="256"
   viewBox="0 0 67.733332 67.733333"
   version="1.1"
   id="svg1"
   xml:space="preserve"
   inkscape:export-filename="r4p.png"
   inkscape:export-xdpi="96"
   inkscape:export-ydpi="96"
   inkscape:version="1.4.2 (ebf0e940d0, 2025-05-08)"
   sodipodi:docname="r4p.svg"
   xmlns:inkscape="http://www.inkscape.org/namespaces/inkscape"
   xmlns:sodipodi="http://sodipodi.sourceforge.net/DTD/sodipodi-0.dtd"
   xmlns:xlink="http://www.w3.org/1999/xlink"
   xmlns="http://www.w3.org/2000/svg"
   xmlns:svg="http://www.w3.org/2000/svg"
   xmlns:serif="http://www.serif.com/"><sodipodi:namedview
     id="namedview1"
     pagecolor="#505050"
     bordercolor="#ffffff"
     borderopacity="1"
     inkscape:showpageshadow="0"
     inkscape:pageopacity="0"
     inkscape:pagecheckerboard="1"
     inkscape:deskcolor="#505050"
     inkscape:document-units="mm"
     inkscape:zoom="2.6792718"
     inkscape:cx="120.92838"
     inkscape:cy="212.93099"
     inkscape:window-width="2560"
     inkscape:window-height="1371"
     inkscape:window-x="0"
     inkscape:window-y="0"
     inkscape:window-maximized="1"
     inkscape:current-layer="layer2" /><defs
     id="defs1"><linearGradient
       id="_Linear1"
       x1="0"
       y1="0"
       x2="1"
       y2="0"
       gradientUnits="userSpaceOnUse"
       gradientTransform="matrix(1,0,0,-1,0,-6.50515e-4)"><stop
         offset="0"
         style="stop-color:rgb(247,76,0);stop-opacity:1"
         id="stop12" /><stop
         offset="0.33"
         style="stop-color:rgb(247,76,0);stop-opacity:1"
         id="stop13" /><stop
         offset="1"
         style="stop-color:rgb(244,150,0);stop-opacity:1"
         id="stop14" /></linearGradient><linearGradient
       id="_Linear2"
       x1="0"
       y1="0"
       x2="1"
       y2="0"
       gradientUnits="userSpaceOnUse"
       gradientTransform="matrix(1,0,0,-1,0,1.23438e-6)"><stop
         offset="0"
         style="stop-color:rgb(204,58,0);stop-opacity:1"
         id="stop15" /><stop
         offset="0.15"
         style="stop-color:rgb(204,58,0);stop-opacity:1"
         id="stop16" /><stop
         offset="0.74"
         style="stop-color:rgb(247,76,0);stop-opacity:1"
         id="stop17" /><stop
         offset="1"
         style="stop-color:rgb(247,76,0);stop-opacity:1"
         id="stop18" /></linearGradient><linearGradient
       id="_Linear3"
       x1="0"
       y1="0"
       x2="1"
       y2="0"
       gradientUnits="userSpaceOnUse"
       gradientTransform="scale(1,-1)"><stop
         offset="0"
         style="stop-color:rgb(204,58,0);stop-opacity:1"
         id="stop19" /><stop
         offset="0.15"
         style="stop-color:rgb(204,58,0);stop-opacity:1"
         id="stop20" /><stop
         offset="0.74"
         style="stop-color:rgb(247,76,0);stop-opacity:1"
         id="stop21" /><stop
         offset="1"
         style="stop-color:rgb(247,76,0);stop-opacity:1"
         id="stop22" /></linearGradient><linearGradient
       id="linearGradient2795"><stop
         style="stop-color:#b8b8b8;stop-opacity:0.49803922;"
         offset="0"
         id="stop2797" /><stop
         style="stop-color:#7f7f7f;stop-opacity:0;"
         offset="1"
         id="stop2799" /></linearGradient><linearGradient
       id="linearGradient2787"><stop
         style="stop-color:#7f7f7f;stop-opacity:0.5;"
         offset="0"
         id="stop2789" /><stop
         style="stop-color:#7f7f7f;stop-opacity:0;"
         offset="1"
         id="stop2791" /></linearGradient><linearGradient
       id="linearGradient3676"><stop
         style="stop-color:#b2b2b2;stop-opacity:0.5;"
         offset="0"
         id="stop3678" /><stop
         style="stop-color:#b3b3b3;stop-opacity:0;"
         offset="1"
         id="stop3680" /></linearGradient><linearGradient
       id="linearGradient3236"><stop
         style="stop-color:#f4f4f4;stop-opacity:1"
         offset="0"
         id="stop3244" /><stop
         style="stop-color:white;stop-opacity:1"
         offset="1"
         id="stop3240" /></linearGradient><linearGradient
       id="linearGradient4671"><stop
         style="stop-color:#ffd43b;stop-opacity:1;"
         offset="0"
         id="stop4673" /><stop
         style="stop-color:#ffe873;stop-opacity:1"
         offset="1"
         id="stop4675" /></linearGradient><linearGradient
       id="linearGradient4689"><stop
         style="stop-color:#5a9fd4;stop-opacity:1;"
         offset="0"
         id="stop4691" /><stop
         style="stop-color:#306998;stop-opacity:1;"
         offset="1"
         id="stop4693" /></linearGradient><linearGradient
       x1="224.23996"
       y1="144.75717"
       x2="-65.308502"
       y2="144.75717"
       id="linearGradient2987"
       xlink:href="#linearGradient4671"
       gradientUnits="userSpaceOnUse"
       gradientTransform="translate(100.2702,99.61116)" /><linearGradient
       x1="172.94208"
       y1="77.475983"
       x2="26.670298"
       y2="76.313133"
       id="linearGradient2990"
       xlink:href="#linearGradient4689"
       gradientUnits="userSpaceOnUse"
       gradientTransform="translate(100.2702,99.61116)" /><linearGradient
       inkscape:collect="always"
       xlink:href="#linearGradient4671"
       id="linearGradient2255"
       gradientUnits="userSpaceOnUse"
       gradientTransform="matrix(0.562541,0,0,0.567972,-11.5974,-7.60954)"
       x1="224.23996"
       y1="144.75717"
       x2="-65.308502"
       y2="144.75717" /><linearGradient
       inkscape:collect="always"
       xlink:href="#linearGradient4689"
       id="linearGradient2258"
       gradientUnits="userSpaceOnUse"
       gradientTransform="matrix(0.562541,0,0,0.567972,-11.5974,-7.60954)"
       x1="172.94208"
       y1="76.176224"
       x2="26.670298"
       y2="76.313133" /><radialGradient
       inkscape:collect="always"
       xlink:href="#linearGradient2795"
       id="radialGradient2801"
       cx="61.518883"
       cy="132.28575"
       fx="61.518883"
       fy="132.28575"
       r="29.036913"
       gradientTransform="matrix(1,0,0,0.177966,0,108.7434)"
       gradientUnits="userSpaceOnUse" /><linearGradient
       inkscape:collect="always"
       xlink:href="#linearGradient4671"
       id="linearGradient1475"
       gradientUnits="userSpaceOnUse"
       gradientTransform="matrix(0.562541,0,0,0.567972,-14.99112,-11.702371)"
       x1="150.96111"
       y1="192.35176"
       x2="112.03144"
       y2="137.27299" /><linearGradient
       inkscape:collect="always"
       xlink:href="#linearGradient4689"
       id="linearGradient1478"
       gradientUnits="userSpaceOnUse"
       gradientTransform="matrix(0.562541,0,0,0.567972,-14.99112,-11.702371)"
       x1="26.648937"
       y1="20.603781"
       x2="135.66525"
       y2="114.39767" /></defs><g
     inkscape:label="Layer 1"
     inkscape:groupmode="layer"
     id="layer1"><g
       style="clip-rule:evenodd;fill-rule:evenodd;stroke-linejoin:round;stroke-miterlimit:1.41421"
       id="g16"
       transform="matrix(0.04057184,0,0,0.04057184,13.430427,25.581166)"><g
         id="Layer-1"
         serif:id="Layer 1">
        <g
   transform="translate(654.172,668.359)"
   id="g1">
            <path
   d="m 0,-322.648 c -114.597,0 -218.172,13.779 -296.172,36.229 v -5.071 c -78,25.095 -127.681,59.959 -127.681,98.506 0,6.077 1.345,12.062 3.703,17.931 l -7.984,14.321 c 0,0 -6.413,8.359 4.935,25.999 10.01,15.554 60.164,76.438 86.628,108.32 11.367,16.348 19.083,26.413 19.757,25.44 1.061,-1.543 -7.064,-32.229 -29.639,-67.242 -10.533,-18.805 -23.358,-43.719 -30.908,-62.12 21.081,13.342 49.189,25.445 81.189,35.861 v -0.159 c 78,22.453 181.575,36.229 296.172,36.229 131.156,0 248.828,-18.046 327.828,-46.491 V -276.153 C 248.828,-304.6 131.156,-322.648 0,-322.648"
   style="fill:#a52b00;fill-rule:nonzero"
   id="path1" />
        </g>
        <g
   transform="translate(1099.87,554.94)"
   id="g2">
            <path
   d="m 0,-50.399 -13.433,-27.828 c 0.071,-1.056 0.124,-2.114 0.124,-3.175 0,-31.548 -32.805,-60.62 -87.997,-83.901 V 2.499 c 25.751,-10.864 46.645,-22.984 61.586,-36.037 -4.398,17.683 -19.437,53.455 -31.428,78.611 -19.707,35.981 -26.845,67.303 -25.929,68.853 0.584,0.978 7.307,-9.393 17.222,-26.2 C -56.783,54.85 -13.063,-7.914 -4.325,-23.901 5.574,-42.024 0,-50.399 0,-50.399"
   style="fill:#a52b00;fill-rule:nonzero"
   id="path2" />
        </g>
        <g
   transform="translate(1177.87,277.21)"
   id="g3">
            <path
   d="m 0,227.175 -88.296,-65.043 c -0.83,-2.895 -1.66,-5.787 -2.516,-8.658 l 29.002,-42.016 c 2.961,-4.274 3.558,-9.829 1.635,-14.703 -1.925,-4.85 -6.136,-8.327 -11.117,-9.179 l -49.043,-8.321 c -1.898,-3.879 -3.89,-7.698 -5.889,-11.484 l 20.604,-47.172 c 2.119,-4.806 1.673,-10.39 -1.139,-14.751 -2.797,-4.383 -7.551,-6.942 -12.617,-6.743 l -49.77,1.809 c -2.577,-3.356 -5.194,-6.68 -7.866,-9.946 l 11.438,-50.56 c 1.159,-5.132 -0.302,-10.508 -3.879,-14.238 -3.555,-3.716 -8.722,-5.254 -13.636,-4.05 l -48.478,11.919 c -3.14,-2.775 -6.33,-5.513 -9.559,-8.196 l 1.745,-51.907 c 0.188,-5.254 -2.262,-10.247 -6.468,-13.163 -4.204,-2.934 -9.54,-3.376 -14.138,-1.196 l -45.226,21.502 c -3.64,-2.09 -7.302,-4.16 -11.005,-6.163 l -7.991,-51.148 c -0.812,-5.181 -4.146,-9.584 -8.815,-11.594 -4.655,-2.022 -9.99,-1.367 -14.077,1.71 l -40.321,30.253 c -3.97,-1.318 -7.958,-2.583 -11.996,-3.792 l -17.38,-48.504 c -1.766,-4.945 -5.842,-8.576 -10.81,-9.597 -4.953,-1.012 -10.048,0.703 -13.483,4.539 l -33.938,37.971 c -4.104,-0.471 -8.21,-0.901 -12.327,-1.259 l -26.208,-44.154 c -2.656,-4.472 -7.344,-7.193 -12.397,-7.193 -5.041,0 -9.739,2.721 -12.372,7.193 l -26.214,44.154 c -4.119,0.358 -8.244,0.788 -12.341,1.259 l -33.943,-37.971 c -3.437,-3.836 -8.551,-5.551 -13.487,-4.539 -4.966,1.035 -9.045,4.652 -10.806,9.597 l -17.393,48.504 c -4.027,1.209 -8.017,2.482 -11.997,3.792 l -40.308,-30.253 c -4.098,-3.088 -9.432,-3.741 -14.098,-1.71 -4.65,2.01 -7.997,6.413 -8.803,11.594 l -7.997,51.148 c -3.7,2.003 -7.363,4.062 -11.014,6.163 l -45.222,-21.502 c -4.592,-2.189 -9.952,-1.738 -14.135,1.196 -4.201,2.916 -6.656,7.909 -6.466,13.163 l 1.736,51.907 c -3.219,2.683 -6.403,5.421 -9.558,8.196 l -48.47,-11.919 c -4.925,-1.195 -10.086,0.334 -13.65,4.05 -3.585,3.73 -5.039,9.106 -3.885,14.238 l 11.415,50.56 c -2.649,3.279 -5.27,6.59 -7.839,9.946 l -49.771,-1.809 c -5.023,-0.148 -9.817,2.36 -12.623,6.743 -2.812,4.361 -3.237,9.945 -1.146,14.751 l 20.619,47.172 c -2.003,3.786 -3.992,7.605 -5.906,11.484 l -49.04,8.321 c -4.982,0.841 -9.183,4.316 -11.12,9.179 -1.925,4.874 -1.3,10.429 1.639,14.703 l 29.01,42.016 c -0.224,0.741 -0.43,1.49 -0.653,2.233 l -82.021,87.122 c 0,0 -12.56,9.851 5.73,33.002 16.14,20.421 98.993,101.376 142.752,143.789 18.483,21.532 31.143,34.866 32.466,33.712 2.088,-1.832 -8.871,-41.006 -45.275,-86.97 -28.06,-41.239 -64.478,-104.666 -55.939,-111.977 0,0 9.714,-12.331 29.204,-21.207 0.713,0.571 -0.737,-0.565 0,0 0,0 411.314,189.736 792.846,3.21 43.584,-7.817 69.968,15.529 69.968,15.529 9.099,5.276 -14.463,70.495 -33.838,113.666 -26.353,49.023 -30.217,87.276 -27.982,88.602 1.409,0.842 10.998,-13.747 24.674,-36.966 C -75.469,370.196 -11.675,280.554 0,258.781 13.239,234.094 0,227.175 0,227.175"
   style="fill:#f74c00;fill-rule:nonzero"
   id="path3" />
        </g>
        <g
   transform="translate(795.856,464.937)"
   id="g4">
            <path
   d="m 0,159.631 c 1.575,-1.342 2.4,-2.139 2.4,-2.139 L -132.25,144.985 C -22.348,0 65.618,116.967 74.988,129.879 v 29.752 z"
   style="fill-rule:nonzero"
   id="path4" />
        </g>
        <g
   transform="translate(278.418,211.791)"
   id="g5">
            <path
   d="m 0,253.04 c 0,0 -111.096,-43.25 -129.876,-89.798 0,0 130.391,-103.717 -25.621,-213.886 l -4.229,140.417 c 0,0 -46.226,-44.594 -44.186,-122.683 0,0 -143.773,69.178 24.476,191.577 0,0 5.676,65.698 156.977,145.017 z"
   style="fill:#f74c00;fill-rule:nonzero"
   id="path5" />
        </g>
        <g
   transform="translate(729.948,492.523)"
   id="g6">
            <path
   d="m 0,-87.016 c 0,0 41.104,-45.009 82.21,0 0,0 32.297,60.013 0,90.016 0,0 -52.85,42.009 -82.21,0 0,0 -35.232,-33.006 0,-90.016"
   style="fill-rule:nonzero"
   id="path6" />
        </g>
        <g
   transform="translate(777.536,422.196)"
   id="g7">
            <path
   d="m 0,0.008 c 0,17.523 -10.329,31.73 -23.07,31.73 -12.739,0 -23.069,-14.207 -23.069,-31.73 0,-17.529 10.33,-31.738 23.069,-31.738 12.741,0 23.07,14.209 23.07,31.738"
   style="fill:#ffffff;fill-rule:nonzero"
   id="path7" />
        </g>
        <g
   transform="translate(546.49,486.263)"
   id="g8">
            <path
   d="m 0,-93.046 c 0,0 70.508,-31.219 89.753,38.463 0,0 20.159,81.218 -57.902,85.802 0,0 -99.541,-19.172 -31.851,-124.265"
   style="fill-rule:nonzero"
   id="path8" />
        </g>
        <g
   transform="translate(581.903,423.351)"
   id="g9">
            <path
   d="m 0,0.002 c 0,18.072 -10.653,32.729 -23.794,32.729 -13.137,0 -23.792,-14.657 -23.792,-32.729 0,-18.078 10.655,-32.731 23.792,-32.731 C -10.653,-32.729 0,-18.076 0,0.002"
   style="fill:#ffffff;fill-rule:nonzero"
   id="path9" />
        </g>
        <g
   transform="translate(1002.23,778.679)"
   id="g10">
            <path
   d="m 0,-296.808 c 0,0 -14.723,58.643 -106.292,120.267 l -25.678,6.018 c 0,0 -83.066,-151.481 -200.749,19.221 0,0 36.677,-21.354 135,4.65 0,0 -45.23,69.226 -136.342,67.099 0,0 87.313,104.749 220.18,-46.554 0,0 140.455,-54.315 151.845,-170.701 z"
   style="fill:#f74c00;fill-rule:nonzero"
   id="path10" />
        </g>
    </g></g></g><g
     inkscape:groupmode="layer"
     id="layer2"
     inkscape:label="Layer 2"><g
       id="g14"
       transform="matrix(0.26458333,0,0,0.26458333,3.7573392,10.522464)"><g
         id="g15"
         transform="matrix(0.85014691,0,0,0.85014691,9.2659615,2.6540283)"><path
           style="fill:url(#linearGradient1478);fill-opacity:1"
           d="M 54.918785,9.1927421e-4 C 50.335132,0.02221727 45.957846,0.41313697 42.106285,1.0946693 30.760069,3.0991731 28.700036,7.2947714 28.700035,15.032169 v 10.21875 h 26.8125 v 3.40625 h -26.8125 -10.0625 c -7.792459,0 -14.6157588,4.683717 -16.7499998,13.59375 -2.46181998,10.212966 -2.57101508,16.586023 0,27.25 1.9059283,7.937852 6.4575432,13.593748 14.2499998,13.59375 h 9.21875 v -12.25 c 0,-8.849902 7.657144,-16.656248 16.75,-16.65625 h 26.78125 c 7.454951,0 13.406253,-6.138164 13.40625,-13.625 v -25.53125 c 0,-7.2663386 -6.12998,-12.7247771 -13.40625,-13.9374997 C 64.281548,0.32794397 59.502438,-0.02037903 54.918785,9.1927421e-4 Z m -14.5,8.21875012579 c 2.769547,0 5.03125,2.2986456 5.03125,5.1249996 -2e-6,2.816336 -2.261703,5.09375 -5.03125,5.09375 -2.779476,-1e-6 -5.03125,-2.277415 -5.03125,-5.09375 -10e-7,-2.826353 2.251774,-5.1249996 5.03125,-5.1249996 z"
           id="path1948" /><path
           style="fill:url(#linearGradient1475);fill-opacity:1"
           d="m 85.637535,28.657169 v 11.90625 c 0,9.230755 -7.825895,16.999999 -16.75,17 h -26.78125 c -7.335833,0 -13.406249,6.278483 -13.40625,13.625 v 25.531247 c 0,7.266344 6.318588,11.540324 13.40625,13.625004 8.487331,2.49561 16.626237,2.94663 26.78125,0 6.750155,-1.95439 13.406253,-5.88761 13.40625,-13.625004 V 86.500919 h -26.78125 v -3.40625 h 26.78125 13.406254 c 7.792461,0 10.696251,-5.435408 13.406241,-13.59375 2.79933,-8.398886 2.68022,-16.475776 0,-27.25 -1.92578,-7.757441 -5.60387,-13.59375 -13.406241,-13.59375 z m -15.0625,64.65625 c 2.779478,3e-6 5.03125,2.277417 5.03125,5.093747 -2e-6,2.826354 -2.251775,5.125004 -5.03125,5.125004 -2.76955,0 -5.03125,-2.29865 -5.03125,-5.125004 2e-6,-2.81633 2.261697,-5.093747 5.03125,-5.093747 z"
           id="path1950" /></g></g></g></svg>
